# xmcd
#
# Track frame offsets:
#	150
#	17436
#	38693
#	59354
#	73973
#	91264
#	106486
#	123231
#	141557
#	156911
#	173585
#	199030
#
# Disc length: 2874 seconds
#
# Revision: 1
# Processed by: cddbd v1.5.2PL0 Copyright (c) Steve Scherf et al.
# Submitted via: audiograbber 1.83.01
#
DISCID=a20b380c
DTITLE=Kenny Chesney - No Shoes no Shirt no Problems
DYEAR=1900
DGENRE=Country
TTITLE0=Young 
TTITLE1=I remember
TTITLE2=A lot of things different
TTITLE3=The good stuff
TTITLE4=Big Star
TTITLE5=On the coast of somewhere beautiful
TTITLE6=Never gonna feelthaat way again
TTITLE7=Dreams
TTITLE8=No shoes, no shirt, no problems
TTITLE9=Live those songs
TTITLE10=One step up
TTITLE11=I can't go there
EXTD=
EXTT0=
EXTT1=
EXTT2=
EXTT3=
EXTT4=
EXTT5=
EXTT6=
EXTT7=
EXTT8=
EXTT9=
EXTT10=
EXTT11=
PLAYORDER=
